<mxfile modified="2023-10-12T18:38:20.925Z" host="app.diagrams.net" agent="Mozilla/5.0 (Windows NT 10.0; Win64; x64) AppleWebKit/537.36 (KHTML, like Gecko) Chrome/117.0.0.0 Safari/537.36" etag="EHrMEfQhuyRb9m1brv5M" version="22.0.4" type="github" pages="2">
  <diagram id="Ht1M8jgEwFfnCIfOTk4-" name="Page-1">
    <mxGraphModel dx="1434" dy="1617" grid="1" gridSize="10" guides="1" tooltips="1" connect="1" arrows="1" fold="1" page="1" pageScale="1" pageWidth="1169" pageHeight="827" math="0" shadow="0">
      <root>
        <mxCell id="0" />
        <mxCell id="1" parent="0" />
        <mxCell id="UEzPUAAOIrF-is8g5C7q-164" style="edgeStyle=orthogonalEdgeStyle;rounded=0;orthogonalLoop=1;jettySize=auto;html=1;startArrow=none;startFill=0;endArrow=open;endFill=0;strokeColor=#808080;strokeWidth=2;" parent="1" source="UEzPUAAOIrF-is8g5C7q-146" target="UEzPUAAOIrF-is8g5C7q-148" edge="1">
          <mxGeometry relative="1" as="geometry">
            <Array as="points">
              <mxPoint x="237" y="-616" />
              <mxPoint x="237" y="-525" />
            </Array>
          </mxGeometry>
        </mxCell>
        <mxCell id="UEzPUAAOIrF-is8g5C7q-165" style="edgeStyle=orthogonalEdgeStyle;rounded=0;orthogonalLoop=1;jettySize=auto;html=1;startArrow=none;startFill=0;endArrow=open;endFill=0;strokeColor=#808080;strokeWidth=2;" parent="1" source="UEzPUAAOIrF-is8g5C7q-147" target="UEzPUAAOIrF-is8g5C7q-148" edge="1">
          <mxGeometry relative="1" as="geometry">
            <Array as="points">
              <mxPoint x="237" y="-456" />
              <mxPoint x="237" y="-525" />
            </Array>
          </mxGeometry>
        </mxCell>
        <mxCell id="UEzPUAAOIrF-is8g5C7q-162" style="edgeStyle=orthogonalEdgeStyle;rounded=0;orthogonalLoop=1;jettySize=auto;html=1;startArrow=none;startFill=0;endArrow=open;endFill=0;strokeColor=#808080;strokeWidth=2;" parent="1" source="UEzPUAAOIrF-is8g5C7q-148" target="UEzPUAAOIrF-is8g5C7q-144" edge="1">
          <mxGeometry relative="1" as="geometry">
            <Array as="points">
              <mxPoint x="325" y="-674" />
              <mxPoint x="295" y="-674" />
            </Array>
          </mxGeometry>
        </mxCell>
        <mxCell id="UEzPUAAOIrF-is8g5C7q-163" style="edgeStyle=orthogonalEdgeStyle;rounded=0;orthogonalLoop=1;jettySize=auto;html=1;startArrow=none;startFill=0;endArrow=open;endFill=0;strokeColor=#808080;strokeWidth=2;" parent="1" source="UEzPUAAOIrF-is8g5C7q-148" target="UEzPUAAOIrF-is8g5C7q-145" edge="1">
          <mxGeometry relative="1" as="geometry">
            <Array as="points">
              <mxPoint x="325" y="-674" />
              <mxPoint x="455" y="-674" />
            </Array>
          </mxGeometry>
        </mxCell>
        <mxCell id="UEzPUAAOIrF-is8g5C7q-166" style="edgeStyle=orthogonalEdgeStyle;rounded=0;orthogonalLoop=1;jettySize=auto;html=1;startArrow=none;startFill=0;endArrow=open;endFill=0;strokeColor=#808080;strokeWidth=2;" parent="1" source="UEzPUAAOIrF-is8g5C7q-148" target="UEzPUAAOIrF-is8g5C7q-150" edge="1">
          <mxGeometry relative="1" as="geometry" />
        </mxCell>
        <mxCell id="UEzPUAAOIrF-is8g5C7q-167" style="edgeStyle=orthogonalEdgeStyle;rounded=0;orthogonalLoop=1;jettySize=auto;html=1;startArrow=none;startFill=0;endArrow=open;endFill=0;strokeColor=#808080;strokeWidth=2;" parent="1" source="UEzPUAAOIrF-is8g5C7q-148" target="UEzPUAAOIrF-is8g5C7q-154" edge="1">
          <mxGeometry relative="1" as="geometry">
            <mxPoint x="786" y="-525" as="targetPoint" />
            <Array as="points">
              <mxPoint x="686" y="-525" />
              <mxPoint x="686" y="-525" />
            </Array>
          </mxGeometry>
        </mxCell>
        <mxCell id="UEzPUAAOIrF-is8g5C7q-168" style="edgeStyle=orthogonalEdgeStyle;rounded=0;orthogonalLoop=1;jettySize=auto;html=1;startArrow=none;startFill=0;endArrow=open;endFill=0;strokeColor=#808080;strokeWidth=2;" parent="1" source="UEzPUAAOIrF-is8g5C7q-148" target="UEzPUAAOIrF-is8g5C7q-149" edge="1">
          <mxGeometry relative="1" as="geometry">
            <Array as="points">
              <mxPoint x="346" y="-643" />
            </Array>
          </mxGeometry>
        </mxCell>
        <mxCell id="UEzPUAAOIrF-is8g5C7q-170" style="edgeStyle=orthogonalEdgeStyle;rounded=0;orthogonalLoop=1;jettySize=auto;html=1;startArrow=none;startFill=0;endArrow=open;endFill=0;strokeColor=#808080;strokeWidth=2;" parent="1" source="UEzPUAAOIrF-is8g5C7q-150" target="UEzPUAAOIrF-is8g5C7q-151" edge="1">
          <mxGeometry relative="1" as="geometry" />
        </mxCell>
        <mxCell id="UEzPUAAOIrF-is8g5C7q-171" style="edgeStyle=orthogonalEdgeStyle;rounded=0;orthogonalLoop=1;jettySize=auto;html=1;startArrow=none;startFill=0;endArrow=open;endFill=0;strokeColor=#808080;strokeWidth=2;" parent="1" source="UEzPUAAOIrF-is8g5C7q-151" target="UEzPUAAOIrF-is8g5C7q-152" edge="1">
          <mxGeometry relative="1" as="geometry" />
        </mxCell>
        <mxCell id="UEzPUAAOIrF-is8g5C7q-169" style="edgeStyle=orthogonalEdgeStyle;rounded=0;orthogonalLoop=1;jettySize=auto;html=1;startArrow=none;startFill=0;endArrow=open;endFill=0;strokeColor=#808080;strokeWidth=2;" parent="1" source="UEzPUAAOIrF-is8g5C7q-153" target="UEzPUAAOIrF-is8g5C7q-148" edge="1">
          <mxGeometry relative="1" as="geometry">
            <Array as="points">
              <mxPoint x="346" y="-394" />
            </Array>
          </mxGeometry>
        </mxCell>
        <mxCell id="UEzPUAAOIrF-is8g5C7q-172" style="edgeStyle=orthogonalEdgeStyle;rounded=0;orthogonalLoop=1;jettySize=auto;html=1;startArrow=none;startFill=0;endArrow=open;endFill=0;strokeColor=#808080;strokeWidth=2;" parent="1" source="UEzPUAAOIrF-is8g5C7q-156" target="UEzPUAAOIrF-is8g5C7q-158" edge="1">
          <mxGeometry relative="1" as="geometry">
            <Array as="points">
              <mxPoint x="950" y="-243" />
              <mxPoint x="950" y="-186" />
            </Array>
          </mxGeometry>
        </mxCell>
        <mxCell id="UEzPUAAOIrF-is8g5C7q-173" style="edgeStyle=orthogonalEdgeStyle;rounded=0;orthogonalLoop=1;jettySize=auto;html=1;startArrow=none;startFill=0;endArrow=open;endFill=0;strokeColor=#808080;strokeWidth=2;" parent="1" source="UEzPUAAOIrF-is8g5C7q-157" target="UEzPUAAOIrF-is8g5C7q-158" edge="1">
          <mxGeometry relative="1" as="geometry">
            <Array as="points">
              <mxPoint x="950" y="-135" />
              <mxPoint x="950" y="-186" />
            </Array>
          </mxGeometry>
        </mxCell>
        <mxCell id="UEzPUAAOIrF-is8g5C7q-174" style="edgeStyle=orthogonalEdgeStyle;rounded=0;orthogonalLoop=1;jettySize=auto;html=1;startArrow=none;startFill=0;endArrow=open;endFill=0;strokeColor=#808080;strokeWidth=2;" parent="1" source="UEzPUAAOIrF-is8g5C7q-161" target="UEzPUAAOIrF-is8g5C7q-153" edge="1">
          <mxGeometry relative="1" as="geometry">
            <Array as="points">
              <mxPoint x="1025" y="-394" />
            </Array>
          </mxGeometry>
        </mxCell>
        <mxCell id="UEzPUAAOIrF-is8g5C7q-144" value="Amazon CloudWatch" style="outlineConnect=0;fontColor=#232F3E;gradientColor=#F34482;gradientDirection=north;fillColor=#BC1356;strokeColor=#ffffff;dashed=0;verticalLabelPosition=bottom;verticalAlign=top;align=center;html=1;fontSize=12;fontStyle=0;aspect=fixed;shape=mxgraph.aws4.resourceIcon;resIcon=mxgraph.aws4.cloudwatch;labelBackgroundColor=#ffffff;spacingTop=5;" parent="1" vertex="1">
          <mxGeometry x="256" y="-794" width="78" height="78" as="geometry" />
        </mxCell>
        <mxCell id="UEzPUAAOIrF-is8g5C7q-145" value="Amazon SNS" style="outlineConnect=0;fontColor=#232F3E;gradientColor=#F34482;gradientDirection=north;fillColor=#BC1356;strokeColor=#ffffff;dashed=0;verticalLabelPosition=bottom;verticalAlign=top;align=center;html=1;fontSize=12;fontStyle=0;aspect=fixed;shape=mxgraph.aws4.resourceIcon;resIcon=mxgraph.aws4.sns;labelBackgroundColor=#ffffff;spacingTop=5;" parent="1" vertex="1">
          <mxGeometry x="416" y="-794" width="78" height="78" as="geometry" />
        </mxCell>
        <mxCell id="UEzPUAAOIrF-is8g5C7q-146" value="Amazon&lt;br&gt;CloudWatch Event&lt;br&gt;" style="outlineConnect=0;fontColor=#232F3E;gradientColor=none;fillColor=#BC1356;strokeColor=none;dashed=0;verticalLabelPosition=bottom;verticalAlign=top;align=center;html=1;fontSize=12;fontStyle=0;aspect=fixed;pointerEvents=1;shape=mxgraph.aws4.event_time_based;labelBackgroundColor=#ffffff;" parent="1" vertex="1">
          <mxGeometry x="46" y="-654" width="78" height="78" as="geometry" />
        </mxCell>
        <mxCell id="UEzPUAAOIrF-is8g5C7q-147" value="Amazon&lt;br&gt;CloudWatch Event&lt;br&gt;" style="outlineConnect=0;fontColor=#232F3E;gradientColor=none;fillColor=#BC1356;strokeColor=none;dashed=0;verticalLabelPosition=bottom;verticalAlign=top;align=center;html=1;fontSize=12;fontStyle=0;aspect=fixed;pointerEvents=1;shape=mxgraph.aws4.event_event_based;labelBackgroundColor=#ffffff;" parent="1" vertex="1">
          <mxGeometry x="46" y="-494" width="78" height="78" as="geometry" />
        </mxCell>
        <mxCell id="UEzPUAAOIrF-is8g5C7q-148" value="Lambda" style="outlineConnect=0;fontColor=#232F3E;gradientColor=#F78E04;gradientDirection=north;fillColor=#D05C17;strokeColor=#ffffff;dashed=0;verticalLabelPosition=bottom;verticalAlign=top;align=center;html=1;fontSize=12;fontStyle=0;aspect=fixed;shape=mxgraph.aws4.resourceIcon;resIcon=mxgraph.aws4.lambda;labelBackgroundColor=#ffffff;spacingTop=8;" parent="1" vertex="1">
          <mxGeometry x="286" y="-564" width="78" height="78" as="geometry" />
        </mxCell>
        <mxCell id="UEzPUAAOIrF-is8g5C7q-149" value="Amazon DynamoDB" style="outlineConnect=0;fontColor=#232F3E;gradientColor=#4D72F3;gradientDirection=north;fillColor=#3334B9;strokeColor=#ffffff;dashed=0;verticalLabelPosition=bottom;verticalAlign=top;align=center;html=1;fontSize=12;fontStyle=0;aspect=fixed;shape=mxgraph.aws4.resourceIcon;resIcon=mxgraph.aws4.dynamodb;labelBackgroundColor=#ffffff;" parent="1" vertex="1">
          <mxGeometry x="616" y="-682.5" width="78" height="78" as="geometry" />
        </mxCell>
        <mxCell id="UEzPUAAOIrF-is8g5C7q-150" value="Amazon SQS Queue" style="outlineConnect=0;fontColor=#232F3E;gradientColor=none;fillColor=#BC1356;strokeColor=none;dashed=0;verticalLabelPosition=bottom;verticalAlign=top;align=center;html=1;fontSize=12;fontStyle=0;aspect=fixed;pointerEvents=1;shape=mxgraph.aws4.queue;labelBackgroundColor=#ffffff;" parent="1" vertex="1">
          <mxGeometry x="286" y="-384" width="78" height="47" as="geometry" />
        </mxCell>
        <mxCell id="UEzPUAAOIrF-is8g5C7q-151" value="Lambda&lt;br&gt;Function&lt;br&gt;" style="outlineConnect=0;fontColor=#232F3E;gradientColor=none;fillColor=#D05C17;strokeColor=none;dashed=0;verticalLabelPosition=bottom;verticalAlign=top;align=center;html=1;fontSize=12;fontStyle=0;aspect=fixed;pointerEvents=1;shape=mxgraph.aws4.lambda_function;labelBackgroundColor=#ffffff;" parent="1" vertex="1">
          <mxGeometry x="286" y="-244" width="78" height="78" as="geometry" />
        </mxCell>
        <mxCell id="UEzPUAAOIrF-is8g5C7q-152" value="Amazon CloudWatch" style="outlineConnect=0;fontColor=#232F3E;gradientColor=#F34482;gradientDirection=north;fillColor=#BC1356;strokeColor=#ffffff;dashed=0;verticalLabelPosition=bottom;verticalAlign=top;align=center;html=1;fontSize=12;fontStyle=0;aspect=fixed;shape=mxgraph.aws4.resourceIcon;resIcon=mxgraph.aws4.cloudwatch;labelBackgroundColor=#ffffff;" parent="1" vertex="1">
          <mxGeometry x="486" y="-244" width="78" height="78" as="geometry" />
        </mxCell>
        <mxCell id="UEzPUAAOIrF-is8g5C7q-153" value="Amazon SNS&lt;br&gt;Topic&lt;br&gt;" style="outlineConnect=0;fontColor=#232F3E;gradientColor=none;fillColor=#BC1356;strokeColor=none;dashed=0;verticalLabelPosition=bottom;verticalAlign=top;align=center;html=1;fontSize=12;fontStyle=0;aspect=fixed;pointerEvents=1;shape=mxgraph.aws4.topic;labelBackgroundColor=#ffffff;" parent="1" vertex="1">
          <mxGeometry x="607" y="-428" width="78" height="67" as="geometry" />
        </mxCell>
        <mxCell id="UEzPUAAOIrF-is8g5C7q-154" value="AWS Cloud" style="points=[[0,0],[0.25,0],[0.5,0],[0.75,0],[1,0],[1,0.25],[1,0.5],[1,0.75],[1,1],[0.75,1],[0.5,1],[0.25,1],[0,1],[0,0.75],[0,0.5],[0,0.25]];outlineConnect=0;gradientColor=none;html=1;whiteSpace=wrap;fontSize=12;fontStyle=0;shape=mxgraph.aws4.group;grIcon=mxgraph.aws4.group_aws_cloud_alt;strokeColor=#232F3E;fillColor=none;verticalAlign=top;align=left;spacingLeft=30;fontColor=#232F3E;dashed=0;labelBackgroundColor=#ffffff;container=1;pointerEvents=0;collapsible=0;recursiveResize=0;" parent="1" vertex="1">
          <mxGeometry x="796" y="-734" width="320" height="311" as="geometry" />
        </mxCell>
        <mxCell id="UEzPUAAOIrF-is8g5C7q-155" value="" style="rounded=0;whiteSpace=wrap;html=1;dashed=1;labelBackgroundColor=#ffffff;fillColor=none;gradientColor=none;container=1;pointerEvents=0;collapsible=0;recursiveResize=0;" parent="1" vertex="1">
          <mxGeometry x="721" y="-344" width="185" height="310" as="geometry" />
        </mxCell>
        <mxCell id="UEzPUAAOIrF-is8g5C7q-156" value="Template" style="outlineConnect=0;fontColor=#232F3E;gradientColor=none;fillColor=#BC1356;strokeColor=none;dashed=0;verticalLabelPosition=bottom;verticalAlign=top;align=center;html=1;fontSize=12;fontStyle=0;aspect=fixed;pointerEvents=1;shape=mxgraph.aws4.template;labelBackgroundColor=#ffffff;" parent="1" vertex="1">
          <mxGeometry x="786" y="-282" width="65" height="78" as="geometry" />
        </mxCell>
        <mxCell id="UEzPUAAOIrF-is8g5C7q-157" value="Template" style="outlineConnect=0;fontColor=#232F3E;gradientColor=none;fillColor=#BC1356;strokeColor=none;dashed=0;verticalLabelPosition=bottom;verticalAlign=top;align=center;html=1;fontSize=12;fontStyle=0;aspect=fixed;pointerEvents=1;shape=mxgraph.aws4.template;labelBackgroundColor=#ffffff;" parent="1" vertex="1">
          <mxGeometry x="786" y="-174" width="65" height="78" as="geometry" />
        </mxCell>
        <mxCell id="UEzPUAAOIrF-is8g5C7q-158" value="Amazon S3&lt;br&gt;Bucket&lt;br&gt;" style="outlineConnect=0;fontColor=#232F3E;gradientColor=none;fillColor=#277116;strokeColor=none;dashed=0;verticalLabelPosition=bottom;verticalAlign=top;align=center;html=1;fontSize=12;fontStyle=0;aspect=fixed;pointerEvents=1;shape=mxgraph.aws4.bucket_with_objects;labelBackgroundColor=#ffffff;" parent="1" vertex="1">
          <mxGeometry x="1008.5" y="-225" width="75" height="78" as="geometry" />
        </mxCell>
        <mxCell id="UEzPUAAOIrF-is8g5C7q-159" value="Cross-Account&lt;br&gt;Role&lt;br&gt;" style="outlineConnect=0;fontColor=#232F3E;gradientColor=none;fillColor=#C7131F;strokeColor=none;dashed=0;verticalLabelPosition=bottom;verticalAlign=top;align=center;html=1;fontSize=12;fontStyle=0;aspect=fixed;pointerEvents=1;shape=mxgraph.aws4.role;labelBackgroundColor=#ffffff;" parent="1" vertex="1">
          <mxGeometry x="851" y="-576" width="78" height="44" as="geometry" />
        </mxCell>
        <mxCell id="UEzPUAAOIrF-is8g5C7q-160" value="CloudWatch&lt;br&gt;Event&lt;br&gt;" style="outlineConnect=0;fontColor=#232F3E;gradientColor=none;fillColor=#BC1356;strokeColor=none;dashed=0;verticalLabelPosition=bottom;verticalAlign=top;align=center;html=1;fontSize=12;fontStyle=0;aspect=fixed;pointerEvents=1;shape=mxgraph.aws4.event_event_based;labelBackgroundColor=#ffffff;" parent="1" vertex="1">
          <mxGeometry x="986" y="-716" width="78" height="78" as="geometry" />
        </mxCell>
        <mxCell id="UEzPUAAOIrF-is8g5C7q-161" value="Lambda&lt;br&gt;Function&lt;br&gt;" style="outlineConnect=0;fontColor=#232F3E;gradientColor=none;fillColor=#D05C17;strokeColor=none;dashed=0;verticalLabelPosition=bottom;verticalAlign=top;align=center;html=1;fontSize=12;fontStyle=0;aspect=fixed;pointerEvents=1;shape=mxgraph.aws4.lambda_function;labelBackgroundColor=#ffffff;" parent="1" vertex="1">
          <mxGeometry x="986" y="-584" width="78" height="78" as="geometry" />
        </mxCell>
      </root>
    </mxGraphModel>
  </diagram>
  <diagram id="HqGw81IQGXD3qYASmn3F" name="Página-2">
    <mxGraphModel dx="1434" dy="790" grid="1" gridSize="10" guides="1" tooltips="1" connect="1" arrows="1" fold="1" page="1" pageScale="1" pageWidth="827" pageHeight="1169" math="0" shadow="0">
      <root>
        <mxCell id="0" />
        <mxCell id="1" parent="0" />
        <mxCell id="kXTvGtRxyqTlTaneTVBv-1" value="&lt;font&gt;Fault Domain&lt;/font&gt;" style="whiteSpace=wrap;html=1;strokeWidth=1;align=center;fontFamily=Oracle Sans;verticalAlign=top;rounded=1;arcSize=7;fontColor=#312D2A;strokeColor=#9E9892;fillColor=#FCFBFA;fontStyle=1;fontSize=12;" vertex="1" parent="1">
          <mxGeometry x="110" y="100" width="220" height="410" as="geometry" />
        </mxCell>
        <mxCell id="kXTvGtRxyqTlTaneTVBv-36" style="edgeStyle=orthogonalEdgeStyle;rounded=0;orthogonalLoop=1;jettySize=auto;html=1;exitX=1;exitY=0.75;exitDx=0;exitDy=0;" edge="1" parent="1" source="kXTvGtRxyqTlTaneTVBv-2" target="kXTvGtRxyqTlTaneTVBv-5">
          <mxGeometry relative="1" as="geometry" />
        </mxCell>
        <mxCell id="kXTvGtRxyqTlTaneTVBv-2" value="&lt;font&gt;Fault Domain&lt;/font&gt;" style="whiteSpace=wrap;html=1;strokeWidth=1;align=center;fontFamily=Oracle Sans;verticalAlign=top;rounded=1;arcSize=7;fontColor=#312D2A;strokeColor=#9E9892;fillColor=#FCFBFA;fontStyle=1;fontSize=12;" vertex="1" parent="1">
          <mxGeometry x="370" y="100" width="220" height="410" as="geometry" />
        </mxCell>
        <mxCell id="kXTvGtRxyqTlTaneTVBv-4" value="Mongo DB" style="strokeWidth=2;html=1;shape=mxgraph.flowchart.database;whiteSpace=wrap;" vertex="1" parent="1">
          <mxGeometry x="687" y="275" width="60" height="60" as="geometry" />
        </mxCell>
        <mxCell id="kXTvGtRxyqTlTaneTVBv-5" value="Object Storage" style="sketch=0;pointerEvents=1;shadow=0;dashed=0;html=1;strokeColor=none;fillColor=#005F4B;labelPosition=center;verticalLabelPosition=bottom;verticalAlign=top;align=center;outlineConnect=0;shape=mxgraph.veeam2.object_storage;" vertex="1" parent="1">
          <mxGeometry x="688" y="378" width="60" height="60" as="geometry" />
        </mxCell>
        <mxCell id="kXTvGtRxyqTlTaneTVBv-19" value="" style="swimlane;startSize=0;" vertex="1" parent="1">
          <mxGeometry x="430" y="550" width="200" height="200" as="geometry" />
        </mxCell>
        <mxCell id="kXTvGtRxyqTlTaneTVBv-34" value="" style="group" vertex="1" connectable="0" parent="1">
          <mxGeometry x="411" y="220" width="138" height="136" as="geometry" />
        </mxCell>
        <mxCell id="kXTvGtRxyqTlTaneTVBv-33" value="&lt;font face=&quot;Oracle Sans&quot;&gt;&lt;span style=&quot;font-size: 16.93px;&quot;&gt;Kubernetes&lt;br&gt;Micro servicios&lt;br&gt;&lt;/span&gt;&lt;/font&gt;" style="verticalAlign=middle;align=center;vsdxID=17;fillColor=none;gradientColor=none;shape=stencil(nZBLDoAgDERP0z3SIyjew0SURgSD+Lu9kMZoXLhwN9O+tukAlrNpJg1SzDH4QW/URgNYgZTkjA4UkwJUgGXng+6DX1zLfmoymdXo17xh5zmRJ6Q42BWCfc2oJfdAr+Yv+AP9Cb7OJ3H/2JG1HNGz/84klThPVCc=);strokeColor=none;spacingTop=-3;spacingBottom=-3;spacingLeft=-3;spacingRight=-3;points=[];labelBackgroundColor=none;rounded=0;html=1;whiteSpace=wrap;" vertex="1" parent="kXTvGtRxyqTlTaneTVBv-34">
          <mxGeometry y="120" width="138" height="36" as="geometry" />
        </mxCell>
        <mxCell id="kXTvGtRxyqTlTaneTVBv-25" style="vsdxID=8;fillColor=none;gradientColor=none;strokeColor=none;spacingTop=-3;spacingBottom=-3;spacingLeft=-3;spacingRight=-3;points=[];labelBackgroundColor=none;rounded=0;html=1;whiteSpace=wrap;" vertex="1" parent="kXTvGtRxyqTlTaneTVBv-34">
          <mxGeometry x="39" y="20" width="80" height="80" as="geometry" />
        </mxCell>
        <mxCell id="kXTvGtRxyqTlTaneTVBv-26" style="vsdxID=9;fillColor=#2d5967;gradientColor=none;shape=stencil(lZXLcoMwDEW/xlvGSDzqdZr+R6YhhSmFDCEt+ftCDViSE+Lu/LgyR9I1Vri7lIdzoUBf+q79LH6qY18qfFUAVVMWXdWPI4V7hbtT2xUfXXttjnZ+PkzKafTVfk8nDDbOpFEaT1Ggb3ZF/83erLiuGiJOIkgea9+vnT05tpswS2Oq1QOw6Q2YeEC+i+uH08dYmjGZbAtKcyjzwqmAU8Vacy5SAeSSu2RjdfOM0Qm5xFt4Fj4HIIkWxDUDlAJ0DBvFc/r7pfYIzXLcCgkc0eROwZs9oG86fOq6JxYVfs4izcVe/l5GJCRmHnIpkT7CGjUXaistpwq7UJ5ewmJkjGR1ILCI8kTSclSiCLMJCQjzCQmYVxIJuWbisEVF/euGm5T+fZP6gOYTDNJr0f6Eg1JF0D8rwKf/DhgH7jd/quravhJ0Xz4L45J9UnD/Cw==);strokeColor=none;spacingTop=-3;spacingBottom=-3;spacingLeft=-3;spacingRight=-3;points=[];labelBackgroundColor=none;rounded=0;html=1;whiteSpace=wrap;" vertex="1" parent="kXTvGtRxyqTlTaneTVBv-25">
          <mxGeometry width="80" height="80" as="geometry" />
        </mxCell>
        <mxCell id="kXTvGtRxyqTlTaneTVBv-27" style="vsdxID=10;fillColor=#2d5967;gradientColor=none;shape=stencil(pZLZDsIgEEW/hldCGRfea/2PJqVCRGgodfl7IRPTxUZtfbsznDszIZdA3qqykYSzNnh3ljddBUXgQDjXVkmvQ1QECgJ57bw8edfZCuumTGRSF3dNE+7oyxhLHs4eWGN1RNRoO0BXgq8Ns+h0/SJ4LTr+AQE0245gsaF8/2H2joo/DX1n1vB+0mLDl5N+METRh6bWxmDmhu/TkMUWBhSKJw==);strokeColor=none;spacingTop=-3;spacingBottom=-3;spacingLeft=-3;spacingRight=-3;points=[];labelBackgroundColor=none;rounded=0;html=1;whiteSpace=wrap;" vertex="1" parent="kXTvGtRxyqTlTaneTVBv-25">
          <mxGeometry x="21" y="8" width="17" height="17" as="geometry" />
        </mxCell>
        <mxCell id="kXTvGtRxyqTlTaneTVBv-28" style="vsdxID=11;fillColor=#2d5967;gradientColor=none;shape=stencil(pZLdDoIwDIWfZrfLtgrMa9T3IDJkERkZoPj2slQjDAV/7tr1O+1ZUwJxnSeVIoLVjTVHddFpkxPYECF0mSurmz4isCUQZ8aqgzVtmWJeJY500cmcXYcOdZwxpxHsijlmO0QLXQ7QH8HHhJeoP96D961FsxzLa0lldBdwr0MnpowYGerAHwqLf5ndz3iVEigPRrBcURHN9A6pDP8TuJfgvWBq6WvBgqUPBH3wvL5MFwUe77DuX2v/hJcO2xs=);strokeColor=none;spacingTop=-3;spacingBottom=-3;spacingLeft=-3;spacingRight=-3;points=[];labelBackgroundColor=none;rounded=0;html=1;whiteSpace=wrap;" vertex="1" parent="kXTvGtRxyqTlTaneTVBv-25">
          <mxGeometry x="41" y="8" width="17" height="17" as="geometry" />
        </mxCell>
        <mxCell id="kXTvGtRxyqTlTaneTVBv-29" style="vsdxID=12;fillColor=#2d5967;gradientColor=none;shape=stencil(pZLLDsIgEEW/ZraEh9WyrvU/mpQKEaGh+Pp7IRNj1Vir7mYu9zBhuCCqQTe9Ak6HGPxOnUwbNYg1cG6cVsHEVIGoQVSdD2ob/MG12PdNduZq74/5hjNyrCCSZYrTCyqiICtUNghY40ZAuSBU/gdITsrle4BR+mC/9bPME9YfjdPjX9b36XHf7nsGkIr793bGWkzH+Pw5DknCKIn6Cg==);strokeColor=none;spacingTop=-3;spacingBottom=-3;spacingLeft=-3;spacingRight=-3;points=[];labelBackgroundColor=none;rounded=0;html=1;whiteSpace=wrap;" vertex="1" parent="kXTvGtRxyqTlTaneTVBv-25">
          <mxGeometry x="31" y="29" width="17" height="8" as="geometry" />
        </mxCell>
        <mxCell id="kXTvGtRxyqTlTaneTVBv-30" style="vsdxID=13;fillColor=#2d5967;gradientColor=none;shape=stencil(pZLNDsIgEISfhusGdqWVc63v0aTUEmtpKP69vUVirBpr1dvsMB8hyzDK+rroNEPee2e3+mhKXzNaMUTT1toZPyhGOaOssk5vnN23ZZy7IiSD2tlDuOEUOSFBiUAhP0cHEUhdnXUEGtOOgOUCuPoPUBIkvgcE5w/x2zwrPBH9MZikIJKJB7wsMCUQ9A3wYYEzgEHcP7gyTRP7MT5/LsRgxTJRfgE=);strokeColor=none;spacingTop=-3;spacingBottom=-3;spacingLeft=-3;spacingRight=-3;points=[];labelBackgroundColor=none;rounded=0;html=1;whiteSpace=wrap;" vertex="1" parent="kXTvGtRxyqTlTaneTVBv-25">
          <mxGeometry x="51" y="29" width="17" height="13" as="geometry" />
        </mxCell>
        <mxCell id="kXTvGtRxyqTlTaneTVBv-31" style="vsdxID=14;fillColor=#2d5967;gradientColor=none;shape=stencil(pZLbDsIgEES/htcN7Eorz7X+R5NSS6yloXj7e4vEWC+NVd+GYQ6bLMMo6+ui0wx5753d6qMpfc1oxRBNW2tn/KAY5Yyyyjq9cXbflvHcFSEZ1M4ewgunyAkJSgQK+Tk6iEDq6qwj0Jh2BCwXwNV/QEogaBoQnD/EkxREMj/Op6M/Bm8T3o9/WaCSIPEb4MMCZwCDuH9wZZom9mN8/1yIwYplovwC);strokeColor=none;spacingTop=-3;spacingBottom=-3;spacingLeft=-3;spacingRight=-3;points=[];labelBackgroundColor=none;rounded=0;html=1;whiteSpace=wrap;" vertex="1" parent="kXTvGtRxyqTlTaneTVBv-25">
          <mxGeometry x="11" y="29" width="17" height="13" as="geometry" />
        </mxCell>
        <mxCell id="kXTvGtRxyqTlTaneTVBv-32" style="vsdxID=15;fillColor=#2d5967;gradientColor=none;shape=stencil(nVTLcoMwDPwaXzW25fhxTpP/yDSkMKWQIaSlf18Ym2LZA016s8WuVlphMdzfytO1YJLf+q59L76qc18yfGFSVk1ZdFU/nhgeGO4vbVe8de29Ofv79TQhp9NH+zllGDxvxyeK5N/+6m9Hj6yrJkJSoESQYgMMGineANoY/3rvfB3CAzTgzAgRw0EqHxpkyKJhZwMqhAQPhQ2YdIQUsKJrEJSkwkvKoOEQnKOycXFByDlAQ7WzrqlLv0KPmfr4rLaQdP7KgHEELDgIuZ46JzgB3GxZLC0ITS22DqylJgsBmJis1YKapwupxQ6Mfqbcp/vLCMkLkvPQVg1JhpMR/ijJKUgeU9pz6ri1oAV1PPZy/ocFWEUdj+eCebn4zwYzwnhYNtKlqmu/0OLv6QYbQ3774eEH);strokeColor=none;spacingTop=-3;spacingBottom=-3;spacingLeft=-3;spacingRight=-3;points=[];labelBackgroundColor=none;rounded=0;html=1;whiteSpace=wrap;" vertex="1" parent="kXTvGtRxyqTlTaneTVBv-25">
          <mxGeometry x="8" y="37" width="63" height="33" as="geometry" />
        </mxCell>
        <mxCell id="kXTvGtRxyqTlTaneTVBv-35" style="edgeStyle=orthogonalEdgeStyle;rounded=0;orthogonalLoop=1;jettySize=auto;html=1;entryX=0;entryY=0.5;entryDx=0;entryDy=0;entryPerimeter=0;" edge="1" parent="1" source="kXTvGtRxyqTlTaneTVBv-2" target="kXTvGtRxyqTlTaneTVBv-4">
          <mxGeometry relative="1" as="geometry" />
        </mxCell>
      </root>
    </mxGraphModel>
  </diagram>
</mxfile>
